<svg width="35" height="36" viewBox="0 0 35 36" fill="none" xmlns="http://www.w3.org/2000/svg">
<rect x="0.5" y="1" width="34" height="34" rx="6.5" stroke="#F8F9FE"/>
<g clip-path="url(#clip0_264_600)">
<path d="M17.5 25.5C13.3645 25.5 10 22.1358 10 18C10 13.8642 13.3645 10.5 17.5 10.5C21.6354 10.5 25 13.8645 25 18C25 22.1354 21.6358 25.5 17.5 25.5ZM17.5 11.7088C14.031 11.7088 11.2088 14.531 11.2088 18C11.2088 21.469 14.031 24.2911 17.5 24.2911C20.969 24.2911 23.7911 21.469 23.7911 18C23.7911 14.531 20.9693 11.7088 17.5 11.7088Z" fill="#1E1E1E"/>
<path d="M15.7721 16.3481C15.861 16.12 15.9848 15.9229 16.144 15.7559C16.3036 15.5882 16.4962 15.4581 16.7216 15.3649C16.9467 15.2706 17.1985 15.2241 17.4772 15.2241C17.8367 15.2241 18.1367 15.2733 18.3775 15.3724C18.618 15.4713 18.8116 15.5943 18.9586 15.7408C19.1054 15.8879 19.2107 16.0462 19.274 16.2154C19.337 16.3853 19.3688 16.5439 19.3688 16.6904C19.3688 16.9331 19.337 17.1334 19.274 17.2904C19.2107 17.4474 19.1321 17.5815 19.0383 17.6929C18.9444 17.8044 18.8409 17.8995 18.7268 17.9779C18.6132 18.0565 18.5054 18.1349 18.4042 18.2135C18.3029 18.2919 18.213 18.3815 18.1346 18.4828C18.056 18.5838 18.0064 18.7106 17.9865 18.8622V19.1509H16.961V18.8089C16.9761 18.5913 17.0181 18.4093 17.0863 18.2625C17.1547 18.1158 17.2343 17.9903 17.3254 17.8863C17.4167 17.7829 17.5128 17.6927 17.6143 17.6167C17.7153 17.5405 17.8088 17.4646 17.8952 17.3894C17.9809 17.313 18.0509 17.2298 18.1042 17.1385C18.1572 17.0477 18.1812 16.933 18.1761 16.7965C18.1761 16.5635 18.1192 16.3915 18.0051 16.2802C17.8914 16.1685 17.7331 16.113 17.5303 16.113C17.3938 16.113 17.2761 16.1394 17.1773 16.1924C17.0784 16.2455 16.9976 16.3169 16.9341 16.4054C16.8708 16.4943 16.8239 16.5982 16.7938 16.7167C16.7633 16.8363 16.7483 16.9634 16.7483 17.1007H15.6318C15.6366 16.8267 15.6832 16.5765 15.7721 16.3481ZM18.0471 19.6068V20.7761H16.8544V19.6068H18.0471Z" fill="#1E1E1E"/>
</g>
<defs>
<clipPath id="clip0_264_600">
<rect width="15" height="15" fill="white" transform="translate(10 10.5)"/>
</clipPath>
</defs>
</svg>
