<?xml version="1.0" standalone="no"?>
<!DOCTYPE svg PUBLIC "-//W3C//DTD SVG 20010904//EN"
 "http://www.w3.org/TR/2001/REC-SVG-20010904/DTD/svg10.dtd">
<svg version="1.0" xmlns="http://www.w3.org/2000/svg"
 width="285.000000pt" height="285.000000pt" viewBox="0 0 285.000000 285.000000"
 preserveAspectRatio="xMidYMid meet">
<metadata>
Created by potrace 1.14, written by Peter Selinger 2001-2017
</metadata>
<g transform="translate(0.000000,285.000000) scale(0.100000,-0.100000)"
fill="#000000" stroke="none">
<path d="M446 2840 c-92 -11 -159 -34 -222 -76 -103 -69 -174 -168 -201 -283
-17 -70 -18 -150 -18 -1066 0 -920 1 -995 18 -1055 45 -162 175 -293 337 -337
60 -17 136 -18 1065 -18 929 0 1005 1 1065 18 162 44 292 175 337 337 17 60
18 136 18 1065 0 929 -1 1005 -18 1065 -44 159 -173 290 -332 337 -55 16 -136
17 -1020 19 -528 1 -991 -2 -1029 -6z m393 -857 c17 -14 41 -91 111 -358 49
-187 95 -365 101 -395 7 -30 13 -50 15 -45 1 6 55 181 119 390 93 303 122 385
141 403 22 19 36 22 105 22 85 0 112 -8 129 -40 6 -10 62 -187 125 -391 64
-205 117 -374 119 -376 2 -2 7 13 11 34 3 21 47 193 97 383 75 289 94 349 114
368 23 20 34 22 156 22 l130 0 -6 -23 c-3 -13 -85 -280 -181 -593 -97 -313
-178 -577 -181 -586 -5 -16 -20 -18 -134 -18 l-129 0 -30 98 c-16 53 -73 238
-125 411 -53 173 -97 316 -99 317 -3 3 -140 -435 -239 -763 l-19 -63 -129 0
-129 0 -35 113 c-177 571 -336 1090 -336 1098 0 5 60 9 139 9 117 0 142 -3
160 -17z"/>
</g>
</svg>
